<?xml version="1.0" encoding="UTF-8"?>
<!DOCTYPE svg PUBLIC "-//W3C//DTD SVG 1.1//EN" "http://www.w3.org/Graphics/SVG/1.1/DTD/svg11.dtd">
<!-- Creator: CorelDRAW 2020 (64-Bit) -->
<svg xmlns="http://www.w3.org/2000/svg" xml:space="preserve" width="210mm" height="297mm" version="1.1" style="shape-rendering:geometricPrecision; text-rendering:geometricPrecision; image-rendering:optimizeQuality; fill-rule:evenodd; clip-rule:evenodd"
viewBox="0 0 21000 29700"
 xmlns:xlink="http://www.w3.org/1999/xlink"
 xmlns:xodm="http://www.corel.com/coreldraw/odm/2003">
 <defs>
  <style type="text/css">
   <![CDATA[
    .fil0 {fill:#3DBCEE}
   ]]>
  </style>
 </defs>
 <g id="Layer_x0020_1">
  <metadata id="CorelCorpID_0Corel-Layer"/>
  <g id="_2706821607744">
   <path class="fil0" d="M13038.53 8048.65c-380.02,-304.2 -760.03,-608.73 -1139.45,-913.65l0 -840.12 1139.45 -915.73 0 101.54 -1060.17 851.98 0 764.55 1060.17 849.12 0 102.31zm1079.28 -3460.83c20.17,129.08 35.22,261.46 45.16,397.63 9.89,137.19 15.01,278.9 15.01,424.53l0 3550.52 -1139.45 -911.85 0 -102.31 1060.17 849.42 0 -3385.78c0,-144.44 -4.94,-284.19 -14.75,-418.99 -7.98,-111.31 -19.53,-219.2 -34.12,-323.3l-1011.3 813 0 -101.54 1068.75 -858.88 10.53 67.55z"/>
   <path class="fil0" d="M7741.97 5356.34l0 2714.06 -1099.92 876.32 0 -3536.82c0,-313.66 23.2,-606.3 69.22,-877.52l1030.7 823.96zm0 -2685.88l0 1089.09 -575.16 -459.93c156.64,-242.23 348.46,-451.92 575.16,-629.16zm0 19359.38c-733.12,-573.2 -1099.92,-1486.25 -1099.92,-2739.43l0 -8759.35 1099.92 -876.67 0 12375.45zm0 -18270.29l0 -1089.09c617.73,-482.79 1495.59,-724.38 2633.85,-724.38 1596.52,0 2684.8,467.87 3265.08,1403.47l-1784.72 1426.97c-184.28,-616.82 -677.77,-925.2 -1480.36,-925.2 -762.64,0 -1240.87,288.97 -1434.82,866.86l-1199.03 -958.63zm0 4310.85l0 -2714.06 1099.92 879.35 0 958.21 -1099.92 876.5zm6396.44 2389.05l0 8830.96c0,2309.31 -1254.26,3463.98 -3762.59,3463.98 -1138.26,0 -2016.12,-241.76 -2633.85,-724.55l0 -12375.45 1099.92 -876.63 0 10512.65c0,1072.2 511.2,1608.38 1533.93,1608.38 1041.96,0 1562.96,-536.18 1562.96,-1608.38l0 -10584.12 2199.63 1753.16z"/>
   <path class="fil0" d="M1764.66 25344.31c-754.96,0 -1183.12,440.96 -1183.12,1180.09l0 1195.75 1438.57 0 0 -377.46 -1064.27 0 0 -802.46c0,-602.85 218.9,-821.75 821.61,-821.75l242.66 0 0 -374.17 -255.45 0zm18645.83 0l-951.73 0c-247.34,0 -596.36,60.22 -802.46,244.19l0 -244.19 -942.09 0c-720.2,3.2 -1183.25,437.67 -1183.25,1075.27l0 1303.72 377.46 0 0 -1179.92c0,-606 215.74,-821.57 815.26,-821.57l555.12 -3.33 0 1998.51 377.5 0 0 -1176.76c0,-602.85 218.9,-821.75 821.57,-821.75l555.12 0 0 2001.67 377.5 0 0 -2375.84zm-4596.4 0l0 999.28 -2128.5 0 0 -999.28 -374.3 0 0 1376.61 2493.16 0c-50.71,447.39 -279.08,621.77 -811.93,621.77l-1681.23 0 0 377.46 1693.85 0c751.76,0 1180.09,-440.96 1180.09,-1179.92l0 -1195.92 -371.14 0zm-4437.85 999.28l0 377.33 1227.52 0c-91.78,475.84 -256.82,621.77 -796.16,621.77l-1306.92 0 0 -802.46c0,-609.16 199.8,-821.75 821.57,-821.75l1678.2 0 0 -374.17 -1690.82 0c-754.96,0 -1183.12,437.67 -1183.12,1180.09l0 1195.75 1690.69 0c802.51,0 1132.41,-339.42 1192.76,-1376.56l-1633.72 0zm-1966.73 -999.28l0 999.28 -2128.5 0 0 -999.28 -374.3 0 0 1376.61 2493.33 0c-50.71,447.39 -279.25,621.77 -812.1,621.77l-1681.23 0 0 377.46 1693.85 0c751.93,0 1180.09,-440.96 1180.09,-1179.92l0 -1195.92 -371.14 0zm-3920.77 1189.43l1211.86 -973.68 -231.69 -291.87 -1281.5 1024.69 -1281.47 -1024.69 -234.85 291.87 1218.14 973.68 -1218.14 970.66 234.85 288.71 1281.47 -1021.36 1281.5 1021.36 231.69 -288.71 -1211.86 -970.66zm-3468.63 1186.41l255.32 0c754.91,0 1180.09,-440.96 1180.09,-1179.92l0 -1195.92 -1435.41 0 0 374.17 1064.09 0 0 805.92c0,605.7 -215.57,818.29 -821.44,818.29l-242.65 0 0 377.46z"/>
  </g>
 </g>
</svg>
